<svg xmlns="http://www.w3.org/2000/svg" width="1440" height="826" fill="none" viewBox="0 0 1440 826"><g clip-path="url(#a)" opacity=".5"><mask id="g" width="1486" height="948" x="-23" y="0" maskUnits="userSpaceOnUse" style="mask-type:alpha"><path fill="url(#b)" d="M-23 0h1486v948H-23z"/><path fill="url(#c)" d="M-23 0h1486v948H-23z"/><path fill="url(#d)" d="M-23 0h1486v948H-23z"/><path fill="url(#e)" d="M-23 0h1486v948H-23z"/><path fill="url(#f)" d="M-23 0h1486v948H-23z"/></mask><g mask="url(#g)"><g filter="url(#h)"><path stroke="url(#i)" stroke-opacity=".8" stroke-width="130" d="M721.001 714.548v-905.096"/></g><path stroke="#fff" stroke-opacity=".05" d="M-11 55.5V.5h55v55zm55 0V.5h55v55zm55 0V.5h55v55zm55 0V.5h55v55z"/><path fill="#fff" fill-opacity=".07" d="M264.5 0h-56v56h56z"/><path stroke="#fff" stroke-opacity=".05" d="M209 55.5V.5h55v55zm55 0V.5h55v55zm55 0V.5h55v55zm55 0V.5h55v55zm55 0V.5h55v55zm55 0V.5h55v55zm55 0V.5h55v55zm55 0V.5h55v55zm55 0V.5h55v55zm55 0V.5h55v55zm55 0V.5h55v55zm55 0V.5h55v55zm55 0V.5h55v55z"/><path fill="#fff" fill-opacity=".07" d="M979.5 0h-56v56h56z"/><path stroke="#fff" stroke-opacity=".05" d="M924 55.5V.5h55v55zm55 0V.5h55v55zm55 0V.5h55v55zm55 0V.5h55v55zm55 0V.5h55v55zm55 0V.5h55v55zm55 0V.5h55v55zm55 0V.5h55v55zm55 0V.5h55v55zm55 0V.5h55v55zm-1430 55v-55h55v55zm55 0v-55h55v55zm55 0v-55h55v55zm55 0v-55h55v55zm55 0v-55h55v55zm55 0v-55h55v55zm55 0v-55h55v55zm55 0v-55h55v55zm55 0v-55h55v55zm55 0v-55h55v55zm55 0v-55h55v55zm55 0v-55h55v55z"/><path fill="#fff" fill-opacity=".07" d="M704.5 55h-56v56h56z"/><path stroke="#fff" stroke-opacity=".05" d="M649 110.5v-55h55v55zm55 0v-55h55v55zm55 0v-55h55v55zm55 0v-55h55v55zm55 0v-55h55v55zm55 0v-55h55v55zm55 0v-55h55v55zm55 0v-55h55v55z"/><path fill="#fff" fill-opacity=".07" d="M1144.5 55h-56v56h56z"/><path stroke="#fff" stroke-opacity=".05" d="M1089 110.5v-55h55v55zm55 0v-55h55v55zm55 0v-55h55v55zm55 0v-55h55v55zm55 0v-55h55v55zm55 0v-55h55v55zm55 0v-55h55v55zm-1430 55v-55h55v55zm55 0v-55h55v55zm55 0v-55h55v55zm55 0v-55h55v55zm55 0v-55h55v55z"/><path fill="#fff" fill-opacity=".07" d="M319.5 110h-56v56h56z"/><path stroke="#fff" stroke-opacity=".05" d="M264 165.5v-55h55v55zm55 0v-55h55v55zm55 0v-55h55v55zm55 0v-55h55v55z"/><path fill="#fff" fill-opacity=".04" d="M539.5 110h-56v56h56z"/><path stroke="#fff" stroke-opacity=".05" d="M484 165.5v-55h55v55zm55 0v-55h55v55zm55 0v-55h55v55zm55 0v-55h55v55zm55 0v-55h55v55zm55 0v-55h55v55zm55 0v-55h55v55zm55 0v-55h55v55zm55 0v-55h55v55zm55 0v-55h55v55zm55 0v-55h55v55zm55 0v-55h55v55zm55 0v-55h55v55zm55 0v-55h55v55zm55 0v-55h55v55zm55 0v-55h55v55zm55 0v-55h55v55zm55 0v-55h55v55zm-1430 55v-55h55v55zm55 0v-55h55v55zm55 0v-55h55v55zm55 0v-55h55v55zm55 0v-55h55v55zm55 0v-55h55v55zm55 0v-55h55v55zm55 0v-55h55v55z"/><path fill="#fff" fill-opacity=".07" d="M484.5 165h-56v56h56z"/><path stroke="#fff" stroke-opacity=".05" d="M429 220.5v-55h55v55zm55 0v-55h55v55zm55 0v-55h55v55zm55 0v-55h55v55zm55 0v-55h55v55zm55 0v-55h55v55zm55 0v-55h55v55zm55 0v-55h55v55zm55 0v-55h55v55zm55 0v-55h55v55zm55 0v-55h55v55zm55 0v-55h55v55zm55 0v-55h55v55z"/><path fill="#fff" fill-opacity=".03" d="M1199.5 165h-56v56h56z"/><path stroke="#fff" stroke-opacity=".05" d="M1144 220.5v-55h55v55zm55 0v-55h55v55zm55 0v-55h55v55zm55 0v-55h55v55zm55 0v-55h55v55zm55 0v-55h55v55zm-1430 55v-55h55v55zm55 0v-55h55v55zm55 0v-55h55v55zm55 0v-55h55v55zm55 0v-55h55v55zm55 0v-55h55v55zm55 0v-55h55v55z"/><path fill="#fff" fill-opacity=".04" d="M429.5 220h-56v56h56z"/><path stroke="#fff" stroke-opacity=".05" d="M374 275.5v-55h55v55zm55 0v-55h55v55zm55 0v-55h55v55zm55 0v-55h55v55z"/><path fill="#fff" fill-opacity=".04" d="M594 275.5v-55h55v55z"/><path stroke="#fff" stroke-opacity=".05" d="M594 275.5v-55h55v55z"/><path stroke="url(#j)" d="M594 275.5v-55h55v55z"/><path stroke="#fff" stroke-opacity=".05" d="M649 275.5v-55h55v55zm55 0v-55h55v55zm55 0v-55h55v55z"/><path fill="#fff" fill-opacity=".07" d="M869.5 220h-56v56h56z"/><path stroke="#fff" stroke-opacity=".05" d="M814 275.5v-55h55v55zm55 0v-55h55v55zm55 0v-55h55v55zm55 0v-55h55v55zm55 0v-55h55v55zm55 0v-55h55v55zm55 0v-55h55v55zm55 0v-55h55v55zm55 0v-55h55v55zm55 0v-55h55v55zm55 0v-55h55v55zm55 0v-55h55v55zm-1430 55v-55h55v55zm55 0v-55h55v55zm55 0v-55h55v55zm55 0v-55h55v55zm55 0v-55h55v55z"/><path fill="#fff" fill-opacity=".02" d="M319.5 275h-56v56h56z"/><path stroke="#fff" stroke-opacity=".05" d="M264 330.5v-55h55v55zm55 0v-55h55v55zm55 0v-55h55v55zm55 0v-55h55v55z"/><path fill="#fff" fill-opacity=".05" d="M539.5 275h-56v56h56z"/><path stroke="#fff" stroke-opacity=".05" d="M484 330.5v-55h55v55zm55 0v-55h55v55z"/><path stroke="url(#k)" d="M539 330.5v-55h55v55z"/><path stroke="#fff" stroke-opacity=".05" d="M594 330.5v-55h55v55zm55 0v-55h55v55zm55 0v-55h55v55zm55 0v-55h55v55zm55 0v-55h55v55zm55 0v-55h55v55zm55 0v-55h55v55zm55 0v-55h55v55zm55 0v-55h55v55zm55 0v-55h55v55zm55 0v-55h55v55zm55 0v-55h55v55zm55 0v-55h55v55zm55 0v-55h55v55zm55 0v-55h55v55zm55 0v-55h55v55zm-1430 55v-55h55v55zm55 0v-55h55v55zm55 0v-55h55v55zm55 0v-55h55v55zm55 0v-55h55v55zm55 0v-55h55v55zm55 0v-55h55v55zm55 0v-55h55v55zm55 0v-55h55v55z"/><path fill="#fff" fill-opacity=".02" d="M539.5 330h-56v56h56z"/><path stroke="#fff" stroke-opacity=".05" d="M484 385.5v-55h55v55zm55 0v-55h55v55zm55 0v-55h55v55zm55 0v-55h55v55zm55 0v-55h55v55zm55 0v-55h55v55zm55 0v-55h55v55zm55 0v-55h55v55zm55 0v-55h55v55zm55 0v-55h55v55zm55 0v-55h55v55zm55 0v-55h55v55zm55 0v-55h55v55zm55 0v-55h55v55zm55 0v-55h55v55zm55 0v-55h55v55zm55 0v-55h55v55zm-1375 55v-55h55v55zm55 0v-55h55v55zm55 0v-55h55v55zm55 0v-55h55v55zm55 0v-55h55v55zm55 0v-55h55v55zm55 0v-55h55v55zm55 0v-55h55v55zm55 0v-55h55v55zm55 0v-55h55v55zm55 0v-55h55v55zm55 0v-55h55v55zm55 0v-55h55v55zm55 0v-55h55v55zm55 0v-55h55v55zm55 0v-55h55v55zm55 0v-55h55v55zm55 0v-55h55v55zm55 0v-55h55v55z"/><path fill="#fff" fill-opacity=".03" d="M1089.5 385h-56v56h56z"/><path stroke="#fff" stroke-opacity=".05" d="M1034 440.5v-55h55v55zm55 0v-55h55v55zm55 0v-55h55v55zm55 0v-55h55v55zm55 0v-55h55v55zm55 0v-55h55v55zm55 0v-55h55v55zm55 0v-55h55v55zm-1430 55v-55h55v55zm55 0v-55h55v55zm55 0v-55h55v55zm55 0v-55h55v55zm55 0v-55h55v55zm55 0v-55h55v55zm55 0v-55h55v55zm55 0v-55h55v55zm55 0v-55h55v55zm55 0v-55h55v55z"/><path fill="#fff" fill-opacity=".07" d="M594.5 440h-56v56h56z"/><path stroke="#fff" stroke-opacity=".05" d="M539 495.5v-55h55v55zm55 0v-55h55v55zm55 0v-55h55v55zm55 0v-55h55v55zm55 0v-55h55v55zm55 0v-55h55v55z"/><path fill="#fff" fill-opacity=".03" d="M924.5 440h-56v56h56z"/><path stroke="#fff" stroke-opacity=".05" d="M869 495.5v-55h55v55zm55 0v-55h55v55zm55 0v-55h55v55zm55 0v-55h55v55zm55 0v-55h55v55zm55 0v-55h55v55zm55 0v-55h55v55zm55 0v-55h55v55zm55 0v-55h55v55zm55 0v-55h55v55zm55 0v-55h55v55zm-1430 55v-55h55v55zm55 0v-55h55v55zm55 0v-55h55v55zm55 0v-55h55v55zm55 0v-55h55v55zm55 0v-55h55v55zm55 0v-55h55v55zm55 0v-55h55v55zm55 0v-55h55v55zm55 0v-55h55v55zm55 0v-55h55v55z"/><path fill="#fff" fill-opacity=".02" d="M649.5 495h-56v56h56z"/><path stroke="#fff" stroke-opacity=".05" d="M594 550.5v-55h55v55zm55 0v-55h55v55zm55 0v-55h55v55zm55 0v-55h55v55zm55 0v-55h55v55zm55 0v-55h55v55zm55 0v-55h55v55zm55 0v-55h55v55zm55 0v-55h55v55zm55 0v-55h55v55zm55 0v-55h55v55z"/><path fill="#fff" fill-opacity=".04" d="M1254.5 495h-56v56h56z"/><path stroke="#fff" stroke-opacity=".05" d="M1199 550.5v-55h55v55zm55 0v-55h55v55zm55 0v-55h55v55zm55 0v-55h55v55zm55 0v-55h55v55zm-1430 55v-55h55v55zm55 0v-55h55v55zm55 0v-55h55v55zm55 0v-55h55v55zm55 0v-55h55v55zm55 0v-55h55v55zm55 0v-55h55v55zm55 0v-55h55v55zm55 0v-55h55v55zm55 0v-55h55v55zm55 0v-55h55v55zm55 0v-55h55v55zm55 0v-55h55v55z"/><path fill="#fff" fill-opacity=".02" d="M759.5 550h-56v56h56z"/><path stroke="#fff" stroke-opacity=".05" d="M704 605.5v-55h55v55z"/><path fill="#fff" fill-opacity=".02" d="M814.5 550h-56v56h56z"/><path stroke="#fff" stroke-opacity=".05" d="M759 605.5v-55h55v55zm55 0v-55h55v55zm55 0v-55h55v55zm55 0v-55h55v55zm55 0v-55h55v55zm55 0v-55h55v55z"/><path fill="#fff" fill-opacity=".02" d="M1144.5 550h-56v56h56z"/><path stroke="#fff" stroke-opacity=".05" d="M1089 605.5v-55h55v55zm55 0v-55h55v55zm55 0v-55h55v55zm55 0v-55h55v55zm55 0v-55h55v55zm55 0v-55h55v55zm55 0v-55h55v55zm-1430 55v-55h55v55zm55 0v-55h55v55zm55 0v-55h55v55zm55 0v-55h55v55zm55 0v-55h55v55zm55 0v-55h55v55zm55 0v-55h55v55zm55 0v-55h55v55zm55 0v-55h55v55zm55 0v-55h55v55zm55 0v-55h55v55zm55 0v-55h55v55z"/><path fill="#fff" fill-opacity=".02" d="M704.5 605h-56v56h56z"/><path stroke="#fff" stroke-opacity=".05" d="M649 660.5v-55h55v55zm55 0v-55h55v55zm55 0v-55h55v55zm55 0v-55h55v55z"/><path fill="#fff" fill-opacity=".02" d="M924.5 605h-56v56h56z"/><path stroke="#fff" stroke-opacity=".05" d="M869 660.5v-55h55v55zm55 0v-55h55v55zm55 0v-55h55v55zm55 0v-55h55v55zm55 0v-55h55v55zm55 0v-55h55v55zm55 0v-55h55v55zm55 0v-55h55v55zm55 0v-55h55v55zm55 0v-55h55v55zm55 0v-55h55v55zm-1430 55v-55h55v55zm55 0v-55h55v55zm55 0v-55h55v55zm55 0v-55h55v55zm55 0v-55h55v55zm55 0v-55h55v55zm55 0v-55h55v55zm55 0v-55h55v55zm55 0v-55h55v55zm55 0v-55h55v55zm55 0v-55h55v55z"/><path fill="#fff" fill-opacity=".07" d="M649.5 660h-56v56h56z"/><path stroke="#fff" stroke-opacity=".05" d="M594 715.5v-55h55v55zm55 0v-55h55v55zm55 0v-55h55v55zm55 0v-55h55v55zm55 0v-55h55v55zm55 0v-55h55v55zm55 0v-55h55v55zm55 0v-55h55v55zm55 0v-55h55v55zm55 0v-55h55v55zm55 0v-55h55v55z"/><path fill="#fff" fill-opacity=".02" d="M1254.5 660h-56v56h56z"/><path stroke="#fff" stroke-opacity=".05" d="M1199 715.5v-55h55v55zm55 0v-55h55v55zm55 0v-55h55v55zm55 0v-55h55v55zm55 0v-55h55v55zm-1430 55v-55h55v55zm55 0v-55h55v55zm55 0v-55h55v55zm55 0v-55h55v55zm55 0v-55h55v55zm55 0v-55h55v55zm55 0v-55h55v55zm55 0v-55h55v55zm55 0v-55h55v55zm55 0v-55h55v55zm55 0v-55h55v55zm55 0v-55h55v55z"/><path fill="#fff" fill-opacity=".07" d="M704.5 715h-56v56h56z"/><path stroke="#fff" stroke-opacity=".05" d="M649 770.5v-55h55v55z"/><path fill="#fff" fill-opacity=".07" d="M759.5 715h-56v56h56z"/><path stroke="#fff" stroke-opacity=".05" d="M704 770.5v-55h55v55z"/><path fill="#fff" fill-opacity=".07" d="M814.5 715h-56v56h56z"/><path stroke="#fff" stroke-opacity=".05" d="M759 770.5v-55h55v55zm55 0v-55h55v55zm55 0v-55h55v55zm55 0v-55h55v55zm55 0v-55h55v55zm55 0v-55h55v55z"/><path fill="#fff" fill-opacity=".02" d="M1144.5 715h-56v56h56z"/><path stroke="#fff" stroke-opacity=".05" d="M1089 770.5v-55h55v55zm55 0v-55h55v55zm55 0v-55h55v55zm55 0v-55h55v55zm55 0v-55h55v55zm55 0v-55h55v55zm55 0v-55h55v55zm-1430 55v-55h55v55zm55 0v-55h55v55zm55 0v-55h55v55zm55 0v-55h55v55zm55 0v-55h55v55zm55 0v-55h55v55zm55 0v-55h55v55zm55 0v-55h55v55zm55 0v-55h55v55zm55 0v-55h55v55zm55 0v-55h55v55zm55 0v-55h55v55z"/><path fill="#fff" fill-opacity=".07" d="M704.5 770h-56v56h56z"/><path stroke="#fff" stroke-opacity=".05" d="M649 825.5v-55h55v55zm55 0v-55h55v55zm55 0v-55h55v55zm55 0v-55h55v55z"/><path fill="#fff" fill-opacity=".07" d="M924.5 770h-56v56h56z"/><path stroke="#fff" stroke-opacity=".05" d="M869 825.5v-55h55v55zm55 0v-55h55v55zm55 0v-55h55v55zm55 0v-55h55v55zm55 0v-55h55v55zm55 0v-55h55v55zm55 0v-55h55v55zm55 0v-55h55v55zm55 0v-55h55v55zm55 0v-55h55v55zm55 0v-55h55v55z"/></g></g><defs><radialGradient id="b" cx="0" cy="0" r="1" gradientTransform="rotate(61.476 322.341 1231.813)scale(313.501 569.391)" gradientUnits="userSpaceOnUse"><stop stop-color="#fff"/><stop offset=".135" stop-color="#fff"/><stop offset="1" stop-color="#fff" stop-opacity="0"/></radialGradient><radialGradient id="c" cx="0" cy="0" r="1" gradientTransform="matrix(202 0 0 231.835 37 389.07)" gradientUnits="userSpaceOnUse"><stop stop-color="#fff" stop-opacity=".6"/><stop offset="1" stop-color="#fff" stop-opacity="0"/></radialGradient><radialGradient id="d" cx="0" cy="0" r="1" gradientTransform="rotate(81.259 337.377 366.15)scale(1302.85 1822.46)" gradientUnits="userSpaceOnUse"><stop stop-color="#fff" stop-opacity=".5"/><stop offset="1" stop-color="#fff" stop-opacity="0"/></radialGradient><radialGradient id="e" cx="0" cy="0" r="1" gradientTransform="matrix(0 72.3051 -183.822 0 720 863.07)" gradientUnits="userSpaceOnUse"><stop stop-color="#fff" stop-opacity=".26"/><stop offset="1" stop-color="#fff" stop-opacity="0"/></radialGradient><radialGradient id="f" cx="0" cy="0" r="1" gradientTransform="rotate(180.493 405.392 321.913)scale(534.02 1751.1)" gradientUnits="userSpaceOnUse"><stop stop-color="#fff" stop-opacity=".7"/><stop offset="1" stop-color="#fff" stop-opacity="0"/></radialGradient><radialGradient id="j" cx="0" cy="0" r="1" gradientTransform="rotate(-45 629.911 -578.418)scale(79.196)" gradientUnits="userSpaceOnUse"><stop stop-color="#fff" stop-opacity=".7"/><stop offset="1" stop-color="#fff" stop-opacity="0"/></radialGradient><radialGradient id="k" cx="0" cy="0" r="1" gradientTransform="rotate(135 240.296 260.625)scale(79.196)" gradientUnits="userSpaceOnUse"><stop stop-color="#fff" stop-opacity=".8"/><stop offset="1" stop-color="#fff" stop-opacity="0"/></radialGradient><linearGradient id="i" x1="721.001" x2="567.473" y1="-190.548" y2="687.71" gradientUnits="userSpaceOnUse"><stop stop-color="#fff"/><stop offset=".5" stop-color="#fff"/><stop offset="1" stop-color="#fff" stop-opacity=".2"/></linearGradient><clipPath id="a"><path fill="#fff" d="M0 0h1463v826H0z"/></clipPath><filter id="h" width="430" height="1205.1" x="506.001" y="-340.548" color-interpolation-filters="sRGB" filterUnits="userSpaceOnUse"><feFlood flood-opacity="0" result="BackgroundImageFix"/><feBlend in="SourceGraphic" in2="BackgroundImageFix" result="shape"/><feGaussianBlur result="effect1_foregroundBlur_86_45" stdDeviation="75"/></filter></defs></svg>