<svg width="40" height="40" viewBox="0 0 40 40" fill="none" xmlns="http://www.w3.org/2000/svg"><path d="M22 1.153l13.32 7.69a4 4 0 012 3.465v15.381a4 4 0 01-2 3.464L22 38.843a4 4 0 01-4 0l-13.32-7.69a4 4 0 01-2-3.464V12.308a4 4 0 012-3.464L18 1.154a4 4 0 014 0z" fill="url(#paint0_linear_2293_5921)"></path><path d="M17.34 21.717a2.238 2.238 0 10-.719-4.418 2.238 2.238 0 00.718 4.418zM23.188 21.717a2.238 2.238 0 10-.718-4.418 2.238 2.238 0 00.718 4.418z" fill="#fff"></path><path d="M19.901 10.27c-6.075 0-11.001 5.02-11 11.211h2.81c0-4.64 3.638-8.401 8.19-8.401s8.19 3.761 8.19 8.401h2.81c.001-6.191-4.925-11.212-11-11.212z" fill="#fff"></path><defs><linearGradient id="paint0_linear_2293_5921" x1="2.679" y1=".617" x2="41.198" y2="35.041" gradientUnits="userSpaceOnUse"><stop stop-color="#AEADFE"></stop><stop offset="1" stop-color="#9391F7"></stop></linearGradient></defs></svg>