<svg xmlns="http://www.w3.org/2000/svg" width="32" height="32" fill="none" viewBox="0 0 32 32"><rect width="31.25" height="31.25" x=".375" y=".375" fill="url(#a)" rx="15.625"/><path fill="url(#b)" stroke="url(#c)" stroke-width=".75" d="M12.875 13.5v-.375h-3.75v9.25h3.75zm5.625 8.875h.375v-5.079c0-.489.158-.82.362-1.029.207-.211.483-.318.763-.318s.556.107.763.318c.204.208.362.54.362 1.029v5.079h3.75V17c0-1.419-.395-2.52-1.102-3.27-.71-.751-1.69-1.105-2.773-1.105-.833 0-1.442.253-1.896.603a3 3 0 0 0-.229.196v-.299h-3.75v9.25zm-7.5-10a1.875 1.875 0 1 0 0-3.75 1.875 1.875 0 0 0 0 3.75Z"/><rect width="31.25" height="31.25" x=".375" y=".375" stroke="url(#d)" stroke-width=".75" rx="15.625"/><defs><linearGradient id="a" x1="31.704" x2="-.296" y1="32" y2="0" gradientUnits="userSpaceOnUse"><stop stop-color="#fff" stop-opacity=".15"/><stop offset="1" stop-opacity="0"/></linearGradient><linearGradient id="b" x1="34.143" x2="13.411" y1=".614" y2="22.055" gradientUnits="userSpaceOnUse"><stop stop-color="#fff" stop-opacity="0"/><stop offset=".333" stop-color="#fff" stop-opacity="0"/><stop offset=".667" stop-color="#fff" stop-opacity="0"/><stop offset="1" stop-color="#fff" stop-opacity=".3"/></linearGradient><linearGradient id="c" x1="24.75" x2="11.882" y1="9.217" y2="24.064" gradientUnits="userSpaceOnUse"><stop stop-color="#fff"/><stop offset="1" stop-color="#fff" stop-opacity=".6"/></linearGradient><linearGradient id="d" x1="31.704" x2="16" y1="0" y2="32" gradientUnits="userSpaceOnUse"><stop stop-color="#fff" stop-opacity=".3"/><stop offset="1" stop-color="#fff" stop-opacity="0"/></linearGradient></defs></svg>