<svg xmlns="http://www.w3.org/2000/svg" width="32" height="32" fill="none" viewBox="0 0 32 32"><g clip-path="url(#a)"><path fill="url(#b)" d="M31.625 16C31.625 7.37 24.629.375 16 .375 7.37.375.375 7.371.375 16c0 8.63 6.996 15.625 15.625 15.625 8.63 0 15.625-6.996 15.625-15.625"/><path fill="url(#c)" d="M13.046 11H11l8 10.5h2.454z"/><path fill="url(#d)" d="M19.738 10h1.994l-4.355 5.083L22.5 22h-4.012l-3.141-4.195L11.75 22H9.757l4.658-5.437L9.5 10h4.113l2.84 3.835zm-.7 10.782h1.105l-7.13-9.627h-1.185z"/><path fill="url(#e)" d="M19.738 10h1.994l-4.355 5.083L22.5 22h-4.012l-3.141-4.195L11.75 22H9.757l4.658-5.437L9.5 10h4.113l2.84 3.835zm-.7 10.782h1.105l-7.13-9.627h-1.185z"/><path stroke="url(#f)" stroke-width=".75" d="M31.625 16C31.625 7.37 24.629.375 16 .375 7.37.375.375 7.371.375 16c0 8.63 6.996 15.625 15.625 15.625 8.63 0 15.625-6.996 15.625-15.625Z"/></g><defs><linearGradient id="b" x1="31.704" x2="-.296" y1="32" y2="0" gradientUnits="userSpaceOnUse"><stop stop-color="#fff" stop-opacity=".15"/><stop offset="1" stop-opacity="0"/></linearGradient><linearGradient id="c" x1="26.334" x2="10.45" y1="4.591" y2="16.381" gradientUnits="userSpaceOnUse"><stop stop-color="#fff" stop-opacity="0"/><stop offset=".333" stop-color="#fff" stop-opacity="0"/><stop offset=".667" stop-color="#fff" stop-opacity="0"/><stop offset="1" stop-color="#fff" stop-opacity=".3"/></linearGradient><linearGradient id="d" x1="30.205" x2="12.104" y1="3.008" y2="20.798" gradientUnits="userSpaceOnUse"><stop stop-color="#fff" stop-opacity="0"/><stop offset=".333" stop-color="#fff" stop-opacity="0"/><stop offset=".667" stop-color="#fff" stop-opacity="0"/><stop offset="1" stop-color="#fff" stop-opacity=".3"/></linearGradient><linearGradient id="e" x1="22.415" x2="11.118" y1="10.516" y2="22.903" gradientUnits="userSpaceOnUse"><stop stop-color="#fff"/><stop offset="1" stop-color="#fff" stop-opacity=".6"/></linearGradient><linearGradient id="f" x1="31.704" x2="16" y1="0" y2="32" gradientUnits="userSpaceOnUse"><stop stop-color="#fff" stop-opacity=".3"/><stop offset="1" stop-color="#fff" stop-opacity="0"/></linearGradient><clipPath id="a"><path fill="#fff" d="M0 0h32v32H0z"/></clipPath></defs></svg>