<svg xmlns="http://www.w3.org/2000/svg" width="32" height="32" fill="none" viewBox="0 0 32 32"><rect width="31.25" height="31.25" x=".375" y=".375" fill="url(#a)" rx="15.625"/><path fill="url(#b)" d="M24 17.64c0 1.063-.107 2.19-.583 3.167-1.264 2.553-4.737 2.493-7.224 2.493-2.526 0-6.206.09-7.52-2.493C8.187 19.84 8 18.703 8 17.64c0-1.397.463-2.717 1.383-3.787a5.2 5.2 0 0 1-.256-1.626c0-.717.163-1.077.486-1.727 1.51 0 2.477.3 3.627 1.2a12.8 12.8 0 0 1 2.957-.333c.9 0 1.806.096 2.68.306 1.133-.89 2.1-1.173 3.593-1.173.327.65.487 1.01.487 1.727a5.1 5.1 0 0 1-.257 1.606c.917 1.08 1.3 2.41 1.3 3.807"/><path fill="url(#c)" fill-rule="evenodd" d="m24.089 21.14.002-.004c.552-1.133.659-2.398.659-3.496 0-1.405-.354-2.791-1.222-3.969a6 6 0 0 0 .179-1.444c0-.893-.223-1.38-.567-2.064l-.207-.413h-.463c-.793 0-1.491.075-2.16.289a5.7 5.7 0 0 0-1.607.827c-.827-.17-1.671-.25-2.506-.25-.93 0-1.864.086-2.783.277a5.9 5.9 0 0 0-1.62-.843c-.673-.22-1.376-.3-2.18-.3h-.465l-.207.416c-.338.678-.565 1.166-.565 2.06 0 .487.057.98.178 1.46-.87 1.151-1.305 2.523-1.305 3.954 0 1.14.199 2.402.753 3.504l.002.003c.803 1.58 2.312 2.286 3.816 2.608 1.392.3 2.911.297 4.112.295h.45c1.19.001 2.684.002 4.047-.308 1.451-.33 2.887-1.043 3.659-2.603m-1.132-8.913a5.1 5.1 0 0 1-.257 1.606c.917 1.08 1.3 2.41 1.3 3.807 0 1.063-.107 2.19-.583 3.167-.727 1.468-2.184 2.072-3.765 2.32q.475-.133.907-.345c.578-.287 1.101-.702 1.476-1.294.376-.593.572-1.315.572-2.165 0-.877-.266-1.742-.812-2.403-.558-.675-1.381-1.1-2.388-1.1-.56 0-1.11.081-1.609.155l-.36.052-.012.002a9 9 0 0 1-1.39.098c-.476 0-.934-.029-1.389-.098l-.01-.002q-.164-.023-.337-.05c-.501-.074-1.064-.157-1.633-.157-1.008 0-1.83.425-2.389 1.1-.545.66-.811 1.526-.811 2.403 0 .85.196 1.571.572 2.164.375.591.898 1.006 1.475 1.294q.357.175.744.297c-1.512-.277-2.885-.894-3.585-2.271C8.187 19.84 8 18.703 8 17.64c0-1.397.463-2.717 1.383-3.787a5.2 5.2 0 0 1-.256-1.626c0-.717.163-1.077.486-1.727 1.51 0 2.477.3 3.627 1.2a12.8 12.8 0 0 1 2.957-.333c.9 0 1.806.096 2.68.306 1.133-.89 2.1-1.173 3.593-1.173.327.65.487 1.01.487 1.727m-5.022 4.486q-.195.03-.395.057a10 10 0 0 1-1.503.107 10 10 0 0 1-1.504-.107l-.367-.053c-.497-.074-.99-.147-1.5-.147-1.56 0-2.45 1.29-2.45 2.753 0 2.927 2.68 3.377 5.014 3.377h1.607c2.343 0 5.02-.447 5.02-3.377 0-1.463-.89-2.753-2.45-2.753-.498 0-.98.07-1.472.143" clip-rule="evenodd"/><path fill="#fff" d="M12.98 21.16c.86 0 1.223-1.14 1.223-1.837 0-.696-.363-1.836-1.223-1.836s-1.223 1.14-1.223 1.837c0 .696.363 1.836 1.223 1.836m4.9-1.836c0-.697.363-1.837 1.223-1.837s1.224 1.14 1.224 1.837c0 .696-.364 1.836-1.224 1.836s-1.223-1.14-1.223-1.837"/><rect width="31.25" height="31.25" x=".375" y=".375" stroke="url(#d)" stroke-width=".75" rx="15.625"/><defs><linearGradient id="a" x1="31.704" x2="-.296" y1="32" y2="0" gradientUnits="userSpaceOnUse"><stop stop-color="#fff" stop-opacity=".15"/><stop offset="1" stop-opacity="0"/></linearGradient><linearGradient id="b" x1="34.286" x2="13.992" y1="2.243" y2="24.98" gradientUnits="userSpaceOnUse"><stop stop-color="#fff" stop-opacity="0"/><stop offset=".333" stop-color="#fff" stop-opacity="0"/><stop offset=".667" stop-color="#fff" stop-opacity="0"/><stop offset="1" stop-color="#fff" stop-opacity=".3"/></linearGradient><linearGradient id="c" x1="25.042" x2="11.028" y1="9.988" y2="27.138" gradientUnits="userSpaceOnUse"><stop stop-color="#fff"/><stop offset="1" stop-color="#fff" stop-opacity=".6"/></linearGradient><linearGradient id="d" x1="31.704" x2="16" y1="0" y2="32" gradientUnits="userSpaceOnUse"><stop stop-color="#fff" stop-opacity=".3"/><stop offset="1" stop-color="#fff" stop-opacity="0"/></linearGradient></defs></svg>