<svg xmlns="http://www.w3.org/2000/svg" width="32" height="32" fill="none" viewBox="0 0 32 32"><g clip-path="url(#a)"><path fill="url(#b)" d="M31.625 16C31.625 7.37 24.629.375 16 .375 7.37.375.375 7.371.375 16c0 8.63 6.996 15.625 15.625 15.625 8.63 0 15.625-6.996 15.625-15.625"/><path stroke="url(#c)" stroke-width=".75" d="M31.625 16C31.625 7.37 24.629.375 16 .375 7.37.375.375 7.371.375 16c0 8.63 6.996 15.625 15.625 15.625 8.63 0 15.625-6.996 15.625-15.625Z"/><path fill="url(#d)" stroke="url(#e)" stroke-width=".75" d="M24.82 12.305s-.175-1.274-.716-1.834c-.686-.736-1.452-.74-1.804-.783-2.517-.188-6.297-.188-6.297-.188h-.007s-3.779 0-6.296.188c-.352.043-1.118.047-1.804.783-.54.56-.713 1.834-.713 1.834S7 13.803 7 15.298v1.4c0 1.495.18 2.993.18 2.993s.175 1.275.713 1.834c.686.737 1.586.712 1.986.79 1.442.142 6.121.185 6.121.185s3.783-.007 6.3-.191c.352-.044 1.118-.047 1.803-.784.542-.56.718-1.834.718-1.834S25 18.197 25 16.7v-1.401c0-1.495-.18-2.993-.18-2.993ZM14.14 18.4v-5.195l4.862 2.606z"/></g><defs><linearGradient id="b" x1="31.704" x2="-.296" y1="32" y2="0" gradientUnits="userSpaceOnUse"><stop stop-color="#fff" stop-opacity=".15" style="stop-color:white;stop-opacity:.15"/><stop offset="1" stop-opacity="0" style="stop-color:none;stop-opacity:0"/></linearGradient><linearGradient id="c" x1="31.704" x2="16" y1="0" y2="32" gradientUnits="userSpaceOnUse"><stop stop-color="#fff" stop-opacity=".3" style="stop-color:white;stop-opacity:.3"/><stop offset="1" stop-color="#fff" stop-opacity="0" style="stop-color:none;stop-opacity:0"/></linearGradient><linearGradient id="d" x1="35.592" x2="16.459" y1="1.926" y2="25.846" gradientUnits="userSpaceOnUse"><stop stop-color="#fff" stop-opacity="0" style="stop-color:none;stop-opacity:0"/><stop offset=".333" stop-color="#fff" stop-opacity="0" style="stop-color:none;stop-opacity:0"/><stop offset=".667" stop-color="#fff" stop-opacity="0" style="stop-color:none;stop-opacity:0"/><stop offset="1" stop-color="#fff" stop-opacity=".3" style="stop-color:white;stop-opacity:.3"/></linearGradient><linearGradient id="e" x1="24.857" x2="13.217" y1="10.059" y2="26.295" gradientUnits="userSpaceOnUse"><stop stop-color="#fff" style="stop-color:white;stop-opacity:1"/><stop offset="1" stop-color="#fff" stop-opacity=".6" style="stop-color:white;stop-opacity:.6"/></linearGradient><clipPath id="a"><path fill="#fff" d="M0 0h32v32H0z" style="fill:#fff;fill-opacity:1"/></clipPath></defs></svg>