<svg width="40" height="40" viewBox="0 0 40 40" fill="none" xmlns="http://www.w3.org/2000/svg"><path d="M22 1.155l13.32 7.69a4 4 0 012 3.464v15.382a4 4 0 01-2 3.464L22 38.845a4 4 0 01-4 0l-13.32-7.69a4 4 0 01-2-3.464V12.309a4 4 0 012-3.464L18 1.155a4 4 0 014 0z" fill="url(#paint0_linear_4_100)"></path><path d="M24.85 23.476l4.743-2.74a.816.816 0 00.407-.705v-5.478c0-.29-.155-.56-.407-.705l-4.744-2.74a.817.817 0 00-.814 0l-4.744 2.74a.816.816 0 00-.406.705v9.79l-3.327 1.92-3.327-1.92v-3.841l3.327-1.92 2.194 1.267v-2.577l-1.787-1.032a.82.82 0 00-.814 0l-4.744 2.739a.816.816 0 00-.407.705v5.478c0 .29.155.56.407.705l4.744 2.74a.82.82 0 00.813 0l4.745-2.74a.816.816 0 00.406-.705v-9.791l.06-.034 3.266-1.886 3.327 1.92v3.841l-3.327 1.92-2.191-1.265v2.577l1.784 1.03a.82.82 0 00.814 0l.001.002z" fill="#fff"></path><defs><linearGradient id="paint0_linear_4_100" x1="2.679" y1=".619" x2="41.198" y2="35.042" gradientUnits="userSpaceOnUse"><stop stop-color="#904FFF"></stop><stop offset="1" stop-color="#6A2FCC"></stop></linearGradient></defs></svg>