<svg width="40" height="40" viewBox="0 0 40 40" fill="none" xmlns="http://www.w3.org/2000/svg"><path d="M22 1.153l13.32 7.69a4 4 0 012 3.465v15.381a4 4 0 01-2 3.464L22 38.843a4 4 0 01-4 0l-13.32-7.69a4 4 0 01-2-3.464V12.308a4 4 0 012-3.464L18 1.154a4 4 0 014 0z" fill="url(#paint0_linear_1760_9419)"></path><path d="M22.63 11.5h-5.343c-.592 0-1.112.43-1.201 1.022l-.377 2.42v.018h-1.793a.86.86 0 00-.86.86c0 .485.394.861.86.88h1.524l-.269 1.666-.018.126h-1.792a.86.86 0 00-.861.86c0 .467.394.861.86.861h1.524l-.824 5.217-.27 1.74-.143.932A1.213 1.213 0 0014.85 29.5H18.864c.592 0 1.094-.43 1.202-1.022l.77-4.787h1.883c3.389 0 6.15-2.797 6.096-6.203-.054-3.352-2.85-5.988-6.186-5.988zm-5.433 5.2l5.415.017c.484 0 .896.395.896.896a.9.9 0 01-.896.897H16.91l.287-1.81zm5.45 5.234H20.388c-.591 0-1.093.43-1.2 1.022l-.772 4.805h-2.94l1.165-7.53h5.97a2.62 2.62 0 002.618-2.618 2.632 2.632 0 00-2.617-2.617l-5.128-.018.269-1.721h4.984a4.358 4.358 0 014.357 4.446c-.072 2.367-2.062 4.231-4.447 4.231z" fill="#fff"></path><defs><linearGradient id="paint0_linear_1760_9419" x1="2.679" y1=".617" x2="41.198" y2="35.041" gradientUnits="userSpaceOnUse"><stop stop-color="#0057FF"></stop><stop offset="1" stop-color="#0047D1"></stop></linearGradient></defs></svg>